<svg xmlns="http://www.w3.org/2000/svg" width="49" height="50" fill="none" viewBox="0 0 49 50"><g clip-path="url(#clip0_24_5)"><path fill="#D26F75" stroke="#D26F75" d="M20.1197 1.62599L43.1144 7.7256C45.0085 8.22802 46.3603 9.88066 46.4629 11.8192L47.7088 35.3538C47.8114 37.2923 46.6415 39.0758 44.8109 39.7714L22.5861 48.2171C20.7555 48.9128 18.6806 48.3623 17.4466 46.8538L2.46506 28.5388C1.23104 27.0303 1.11862 24.9065 2.18659 23.2785L15.1522 3.5137C16.2202 1.88568 18.2256 1.12357 20.1197 1.62599Z"/><path fill="#F8F8F8" d="M30.5869 13.2075C31.0958 12.194 29.7936 11.2477 28.9899 12.048C25.8478 15.1769 21.5353 19.4713 17.8852 23.1062C17.2532 23.7356 17.7007 24.813 18.5926 24.813H30.927C31.8189 24.813 32.2646 25.8922 31.6326 26.5216L20.532 37.5758C19.7283 38.376 18.4238 37.432 18.9327 36.4184L30.5869 13.2075ZM29.3985 13.5925L28.8344 14.0193Z"/><path stroke="#F8F8F8" stroke-width=".1" d="M26.4264 15.7895L29.3985 13.5925M29.3985 13.5925C29.3985 13.5925 27.9909 14.6059 29.8181 14.2063M29.3985 13.5925L28.8344 14.0193M20.532 37.5758L31.6326 26.5216C32.2646 25.8922 31.8189 24.813 30.927 24.813H18.5926C17.7007 24.813 17.2532 23.7356 17.8852 23.1062C21.5353 19.4713 25.8478 15.1769 28.9899 12.048C29.7936 11.2477 31.0958 12.194 30.5869 13.2075L18.9327 36.4184C18.4238 37.432 19.7283 38.376 20.532 37.5758Z"/><path stroke="#D26F75" d="M23.7838 15.7895L31.7117 19.7368"/></g><defs><clipPath id="clip0_24_5"><rect width="48.889" height="50" fill="#fff"/></clipPath></defs></svg>